<?xml version="1.0" standalone="no"?>
<!DOCTYPE svg PUBLIC "-//W3C//DTD SVG 20010904//EN"
 "http://www.w3.org/TR/2001/REC-SVG-20010904/DTD/svg10.dtd">
<svg version="1.0" xmlns="http://www.w3.org/2000/svg"
 width="1016.000000pt" height="1016.000000pt" viewBox="0 0 1016.000000 1016.000000"
 preserveAspectRatio="xMidYMid meet">
<metadata>
Created by potrace 1.11, written by Peter Selinger 2001-2013
</metadata>
<g transform="translate(0.000000,1016.000000) scale(0.100000,-0.100000)"
fill="#000000" stroke="none">
<path d="M4350 9718 c-25 -4 -58 -10 -75 -12 -16 -2 -37 -6 -45 -9 -8 -4 -28
-8 -45 -11 -16 -2 -31 -5 -32 -6 -2 -2 -7 -4 -13 -5 -5 -1 -11 -3 -12 -5 -3
-1 -13 -4 -50 -13 -104 -24 -517 -220 -579 -273 -8 -8 -18 -14 -22 -14 -7 0
-234 -147 -254 -164 -35 -30 -43 -36 -43 -31 0 7 -24 -12 -48 -37 -9 -10 -21
-18 -26 -18 -5 0 -16 -7 -25 -15 -9 -8 -50 -41 -91 -72 -41 -31 -77 -60 -80
-63 -3 -3 -27 -23 -55 -45 -41 -32 -230 -192 -271 -230 -106 -96 -216 -197
-287 -265 -253 -240 -707 -710 -707 -731 0 -6 -4 -7 -10 -4 -5 3 -10 3 -10 -2
0 -4 -19 -28 -41 -53 -76 -83 -104 -115 -159 -180 -58 -68 -105 -122 -130
-149 -70 -77 -360 -448 -360 -461 0 -5 -4 -10 -8 -10 -4 0 -28 -28 -52 -62
-24 -35 -47 -64 -52 -66 -4 -2 -8 -10 -8 -18 0 -8 -4 -14 -10 -14 -5 0 -10 -6
-10 -14 0 -8 -4 -16 -9 -18 -10 -4 -208 -305 -242 -368 -13 -25 -29 -50 -35
-56 -6 -7 -24 -38 -40 -70 -16 -33 -32 -61 -36 -64 -21 -16 -226 -465 -220
-482 1 -5 -3 -8 -10 -8 -6 0 -9 -3 -6 -6 3 -3 -10 -49 -29 -102 -19 -53 -34
-97 -33 -97 1 0 -3 -20 -10 -45 -13 -49 -19 -72 -26 -110 -2 -14 -9 -47 -15
-75 -19 -91 -23 -158 -23 -345 0 -180 6 -299 18 -350 6 -26 14 -75 22 -125 2
-16 7 -37 10 -45 3 -8 8 -26 10 -40 18 -94 155 -427 184 -445 6 -3 8 -10 5
-14 -2 -5 4 -16 15 -26 11 -10 20 -23 20 -29 1 -6 14 -27 30 -46 17 -19 30
-37 30 -41 0 -10 69 -86 161 -178 138 -139 291 -247 489 -346 52 -26 103 -52
113 -57 11 -5 60 -25 110 -44 51 -19 99 -37 107 -41 8 -3 17 -7 20 -8 22 -6
128 -37 138 -40 7 -3 14 -5 17 -5 3 0 23 -7 45 -15 22 -8 40 -12 40 -10 0 2
19 -3 43 -11 33 -12 72 -14 182 -10 77 3 151 8 165 10 14 2 52 7 85 10 33 3
74 10 90 15 17 4 42 7 58 7 15 -1 27 1 27 5 0 3 6 6 13 7 13 1 47 7 89 16 15
4 80 22 145 41 140 42 129 38 190 62 10 3 20 7 23 8 13 4 50 20 108 46 34 15
62 25 62 21 0 -4 5 0 10 8 5 8 13 15 17 15 14 1 127 59 141 72 7 7 18 13 24
13 5 0 30 14 55 30 24 17 46 30 48 30 5 0 159 102 165 110 3 3 21 17 40 30 48
33 183 145 249 205 75 69 201 195 201 201 0 3 12 17 28 32 15 15 45 49 67 76
22 26 46 54 53 61 6 7 12 18 12 24 0 6 3 11 8 11 4 0 21 20 37 45 17 24 33 45
38 45 4 0 7 4 7 9 0 5 25 47 55 93 30 45 55 88 55 95 0 6 4 13 9 15 8 3 141
270 141 284 0 3 16 48 34 98 19 51 37 103 40 117 3 13 10 40 16 59 6 19 13 44
15 55 3 11 7 31 10 45 18 79 34 172 40 225 4 33 9 69 11 80 10 44 12 293 4
340 -24 135 -61 239 -114 323 -13 22 -22 43 -19 46 4 3 1 6 -5 6 -6 0 -17 11
-24 24 -39 71 -266 306 -297 306 -5 0 -11 4 -13 8 -4 11 -93 63 -163 96 -48
23 -196 80 -215 84 -3 0 -12 3 -20 5 -43 13 -107 30 -125 32 -11 2 -31 6 -45
9 -39 9 -139 27 -173 31 -18 2 -43 6 -57 10 -30 7 -173 8 -215 1 -47 -7 -119
-20 -125 -21 -164 -42 -367 -133 -455 -203 -5 -4 -28 -19 -50 -32 -22 -13 -51
-35 -65 -47 -14 -13 -27 -23 -31 -23 -3 0 -21 -14 -40 -31 -19 -17 -53 -47
-77 -67 -24 -20 -73 -67 -110 -104 -37 -38 -70 -68 -74 -68 -4 0 -3 14 2 30 5
17 9 31 8 33 0 1 6 22 13 47 7 25 12 48 11 53 -1 4 2 7 6 7 5 0 9 6 9 13 0 6
7 29 16 50 9 20 16 40 16 42 1 10 105 201 137 253 19 29 34 56 34 61 0 5 3 11
8 13 4 2 47 56 95 120 48 64 93 123 100 130 6 7 37 42 67 78 124 146 358 380
534 535 32 28 69 61 84 75 15 14 92 79 172 145 80 65 152 125 160 132 15 14
160 127 214 167 15 11 36 29 44 39 9 9 20 17 25 17 4 0 33 20 65 45 54 42 245
183 292 215 12 8 51 36 87 63 35 26 68 47 73 47 6 0 10 5 10 10 0 6 5 10 10
10 6 0 16 4 23 10 58 47 77 61 77 55 0 -3 6 -1 13 5 59 50 80 64 137 91 36 17
77 37 92 45 14 8 33 14 42 14 9 0 16 3 16 8 0 4 29 20 65 36 36 16 65 33 65
38 0 4 6 8 13 8 7 0 43 21 80 46 168 113 270 230 300 348 31 115 8 164 -161
347 -52 56 -84 73 -182 94 -8 2 -53 16 -100 30 -196 61 -228 68 -295 70 -38 1
-90 -2 -115 -7z"/>
<path d="M8297 7254 c-1 -1 -36 -5 -77 -8 -106 -9 -147 -14 -215 -26 -33 -5
-71 -12 -85 -14 -14 -2 -32 -7 -40 -10 -8 -3 -27 -8 -42 -11 -16 -3 -40 -8
-55 -11 -16 -3 -32 -7 -38 -8 -25 -5 -222 -68 -240 -76 -11 -5 -43 -18 -71
-29 -28 -11 -71 -29 -95 -39 -24 -11 -51 -23 -59 -26 -29 -12 -236 -125 -255
-138 -25 -19 -117 -78 -122 -78 -4 0 -74 -50 -83 -60 -3 -3 -21 -17 -40 -30
-19 -13 -40 -29 -46 -35 -6 -5 -23 -19 -39 -30 -15 -11 -37 -30 -48 -42 -11
-13 -24 -23 -28 -23 -12 0 -184 -166 -281 -271 -89 -98 -191 -219 -183 -219 3
0 -3 -9 -12 -19 -78 -86 -239 -367 -298 -521 -16 -41 -34 -78 -40 -82 -5 -4
-6 -8 -1 -8 5 0 4 -6 -2 -12 -6 -7 -11 -17 -12 -23 0 -5 -12 -46 -25 -90 -22
-75 -53 -190 -60 -226 -2 -9 -6 -34 -10 -55 -7 -43 -13 -69 -15 -69 0 0 -3
-22 -5 -50 -3 -27 -7 -63 -10 -80 -3 -16 -7 -97 -9 -180 -4 -135 -2 -159 20
-245 14 -52 25 -101 26 -107 1 -7 5 -13 10 -13 4 0 7 -3 6 -7 -6 -19 79 -173
138 -250 96 -126 326 -320 402 -339 12 -4 22 -10 22 -15 0 -5 8 -9 18 -9 10 0
22 -4 28 -9 7 -7 96 -43 114 -47 3 0 12 -3 20 -7 17 -6 126 -37 150 -42 8 -2
15 -4 15 -5 0 -2 37 -11 60 -14 11 -1 45 -8 75 -14 230 -48 362 -48 545 2 33
9 67 18 75 20 99 25 375 174 448 244 7 6 17 12 21 12 4 0 25 17 48 38 23 20
55 48 73 61 17 13 69 62 115 108 46 45 86 83 89 83 3 0 -4 -35 -19 -92 -3 -10
-7 -26 -9 -36 -2 -10 -11 -34 -19 -54 -9 -20 -13 -39 -9 -42 3 -3 0 -6 -6 -6
-7 0 -12 -5 -12 -12 0 -16 -63 -152 -72 -156 -5 -2 -8 -8 -8 -12 0 -13 -72
-134 -82 -138 -4 -2 -8 -8 -8 -13 0 -8 -58 -97 -70 -109 -3 -3 -17 -21 -30
-40 -139 -200 -504 -580 -825 -855 -32 -27 -63 -55 -69 -60 -6 -6 -58 -49
-115 -95 -58 -47 -113 -92 -122 -100 -22 -19 -19 -17 -180 -140 -74 -58 -148
-114 -164 -125 -15 -11 -36 -27 -45 -35 -25 -23 -78 -60 -86 -60 -4 0 -12 -6
-18 -14 -6 -7 -74 -58 -151 -112 -77 -54 -146 -104 -153 -111 -7 -7 -17 -13
-22 -13 -5 0 -15 -6 -22 -13 -7 -7 -47 -35 -88 -62 -41 -28 -77 -53 -80 -56
-12 -13 -134 -71 -160 -75 -8 -2 -16 -8 -18 -13 -2 -6 -10 -11 -17 -11 -38 0
-306 -167 -380 -237 -47 -45 -130 -143 -120 -143 3 0 -3 -13 -15 -30 -12 -16
-19 -30 -15 -30 3 0 1 -8 -4 -17 -5 -10 -12 -42 -16 -71 -5 -43 -3 -60 15 -94
21 -41 70 -108 105 -143 11 -12 41 -44 68 -73 26 -28 47 -50 47 -48 0 2 60
-14 133 -36 72 -22 137 -41 142 -42 33 -8 107 -30 148 -43 46 -15 134 -14 252
2 88 12 316 80 386 116 20 10 39 15 43 12 3 -4 6 0 6 7 0 7 3 11 6 8 3 -3 50
16 104 42 82 41 140 72 299 165 23 14 212 137 229 150 7 6 22 18 33 28 10 9
19 15 19 12 0 -7 269 197 316 240 6 6 28 24 49 40 21 17 43 35 49 40 6 6 40
35 76 65 35 30 72 62 81 70 8 8 51 47 94 85 260 234 639 612 920 920 48 53
153 169 172 191 10 12 41 48 69 80 28 32 71 82 94 109 24 28 47 52 51 53 5 2
9 8 9 13 0 5 8 17 18 27 9 10 31 35 47 56 17 21 62 78 100 125 39 48 79 100
90 115 19 26 30 40 65 83 9 10 26 35 39 56 12 20 27 37 32 37 5 0 9 7 9 15 0
8 5 15 10 15 6 0 10 7 10 15 0 8 4 15 9 15 5 0 13 9 16 20 3 11 12 26 19 32
26 27 200 291 261 396 124 213 188 339 274 535 22 51 34 80 35 87 1 3 6 19 13
35 17 45 26 69 28 75 1 3 4 12 8 20 13 33 69 235 73 265 1 11 6 34 9 50 4 17
9 41 10 55 2 14 4 25 5 25 14 0 20 419 7 535 -4 36 -8 72 -8 80 -1 8 -6 38
-11 65 -7 43 -12 69 -22 130 -1 6 -5 16 -9 23 -5 6 -6 12 -3 12 3 0 1 12 -5
28 -6 15 -13 37 -15 50 -3 12 -14 48 -26 80 -12 31 -23 62 -24 68 -1 7 -24 56
-50 110 -54 112 -144 252 -213 334 -64 76 -241 246 -241 232 0 -3 -6 1 -12 10
-13 16 -123 98 -132 98 -2 0 -31 17 -63 39 -64 42 -300 161 -320 161 -7 0 -13
5 -13 12 0 6 -3 9 -6 5 -3 -3 -26 3 -50 13 -24 11 -44 17 -44 13 0 -3 -6 -1
-12 5 -12 9 -105 39 -303 98 -39 12 -96 18 -163 19 -56 0 -104 0 -105 -1z"/>
</g>
</svg>
